<?xml version="1.0" encoding="UTF-8" standalone="no"?>
<!-- Created with Inkscape (http://www.inkscape.org/) -->

<svg
   width="1345.7072"
   height="443.90848"
   viewBox="0 0 1345.7071 443.90847"
   version="1.1"
   id="svg1"
   inkscape:version="1.4 (86a8ad7, 2024-10-11)"
   sodipodi:docname="reggielogo.svg"
   xmlns:inkscape="http://www.inkscape.org/namespaces/inkscape"
   xmlns:sodipodi="http://sodipodi.sourceforge.net/DTD/sodipodi-0.dtd"
   xmlns="http://www.w3.org/2000/svg"
   xmlns:svg="http://www.w3.org/2000/svg">
  <sodipodi:namedview
     id="namedview1"
     pagecolor="#505050"
     bordercolor="#eeeeee"
     borderopacity="1"
     inkscape:showpageshadow="0"
     inkscape:pageopacity="0"
     inkscape:pagecheckerboard="0"
     inkscape:deskcolor="#505050"
     inkscape:document-units="px"
     inkscape:zoom="0.417193"
     inkscape:cx="872.49786"
     inkscape:cy="97.077372"
     inkscape:window-width="1920"
     inkscape:window-height="1009"
     inkscape:window-x="-8"
     inkscape:window-y="-8"
     inkscape:window-maximized="1"
     inkscape:current-layer="layer1"
     showgrid="false" />
  <defs
     id="defs1" />
  <g
     inkscape:label="Layer 1"
     inkscape:groupmode="layer"
     id="layer1"
     transform="translate(-3.4997021,-131.62379)">
    <path
       d="m 404.48547,220.90936 v 339.0625 h -76.5625 V 143.95624 h 76.5625 v 73.4375 q 0.78125,-15.23438 7.03125,-28.51563 6.25,-13.67187 16.40625,-23.4375 10.54688,-10.15625 24.21875,-15.625 13.67188,-5.85937 29.29688,-5.85937 h 81.64062 q 16.01563,0 29.6875,6.25 14.0625,5.85937 24.60938,16.40625 10.54687,10.15625 16.40625,24.21875 6.25,14.0625 6.25,30.07812 v 70.3125 h -76.95313 v -70.3125 z"
       id="text1"
       style="font-size:800px;font-family:Aldrich;-inkscape-font-specification:'Aldrich, Normal';fill:#ffffff;stroke-width:46.0171"
       transform="scale(1.0936947,0.91433194)"
       aria-label="r" />
    <path
       d="m 303.1123,419.90519 -16.40624,16.40624 H 141.91448 v -44.01039 h 85.93745 L 3.3729019,167.82201 34.622883,136.57203 259.10191,361.05106 v -85.93745 h 44.01039 z"
       id="text2"
       style="font-size:533.333px;font-family:Aldrich;-inkscape-font-specification:'Aldrich, Normal';fill:#ffffff;stroke-width:22.927"
       transform="scale(1.0375938,0.96376828)"
       aria-label="↘" />
    <path
       d="M 647.05913,435.23292 H 532.31314 v 38.24866 h 114.74599 v 32.06377 H 532.31314 q -6.51041,0 -12.36977,-2.4414 -5.85937,-2.60417 -10.2539,-6.83594 -4.23177,-4.39452 -6.83593,-10.25389 -2.44141,-5.85937 -2.44141,-12.53254 V 364.26945 q 0,-6.67318 2.44141,-12.53254 2.60416,-5.85937 6.83593,-10.09114 4.39453,-4.39453 10.2539,-6.83593 5.85936,-2.60417 12.36977,-2.60417 h 82.68222 q 6.67317,0 12.53254,2.60417 5.85936,2.4414 10.09113,6.83593 4.39453,4.23177 6.83593,10.09114 2.60417,5.85936 2.60417,12.53254 z M 532.31314,364.26945 v 38.8997 h 82.68222 v -38.8997 z m 168.13136,0 q 0,-6.67318 2.4414,-12.53254 2.60417,-5.85937 6.83593,-10.09114 4.39453,-4.39453 10.2539,-6.83593 5.85937,-2.60417 12.36978,-2.60417 h 57.45437 q 6.34765,0 12.04426,2.44141 5.69661,2.27864 9.92837,6.51041 4.39453,4.06901 6.9987,9.76561 2.76692,5.53385 2.92968,11.8815 v -30.59893 h 32.06377 v 211.26282 q 0,6.67317 -2.60416,12.53254 -2.44141,5.85937 -6.83593,10.09113 -4.23177,4.39453 -10.09114,6.83594 -5.85937,2.60416 -12.53254,2.60416 H 720.46401 v -32.06377 h 101.23688 v -44.59631 h -89.35538 q -6.51041,0 -12.36978,-2.44141 -5.85937,-2.60416 -10.2539,-6.83593 -4.23176,-4.39452 -6.83593,-10.25389 -2.4414,-5.85937 -2.4414,-12.53254 z M 821.70089,466.80841 V 364.26945 h -89.35538 v 102.53896 z m 85.44913,-102.53896 q 0,-6.67318 2.4414,-12.53254 2.60417,-5.85937 6.83593,-10.09114 4.39453,-4.39453 10.2539,-6.83593 5.85937,-2.60417 12.36978,-2.60417 h 57.45437 q 6.3477,0 12.0443,2.44141 5.6966,2.27864 9.9283,6.51041 4.3946,4.06901 6.9987,9.76561 2.767,5.53385 2.9297,11.8815 v -30.59893 h 32.0638 v 211.26282 q 0,6.67317 -2.6042,12.53254 -2.4414,5.85937 -6.8359,10.09113 -4.2318,4.39453 -10.0911,6.83594 -5.8594,2.60416 -12.5326,2.60416 H 927.16953 v -32.06377 h 101.23687 v -44.59631 h -89.35537 q -6.51041,0 -12.36978,-2.44141 -5.85937,-2.60416 -10.2539,-6.83593 -4.23176,-4.39452 -6.83593,-10.25389 -2.4414,-5.85937 -2.4414,-12.53254 z M 1028.4064,466.80841 V 364.26945 h -89.35537 v 102.53896 z m 119.1405,-134.60274 v 173.33968 h -32.0637 V 332.20567 Z m -33.6913,-66.7317 h 35.3189 v 33.36585 h -35.3189 z m 235.3513,169.75895 h -114.746 v 38.24866 h 114.746 v 32.06377 h -114.746 q -6.5104,0 -12.3698,-2.4414 -5.8593,-2.60417 -10.2539,-6.83594 -4.2317,-4.39452 -6.8359,-10.25389 -2.4414,-5.85937 -2.4414,-12.53254 V 364.26945 q 0,-6.67318 2.4414,-12.53254 2.6042,-5.85937 6.8359,-10.09114 4.3946,-4.39453 10.2539,-6.83593 5.8594,-2.60417 12.3698,-2.60417 h 82.6822 q 6.6732,0 12.5326,2.60417 5.8593,2.4414 10.0911,6.83593 4.3945,4.23177 6.8359,10.09114 2.6042,5.85936 2.6042,12.53254 z m -114.746,-70.96347 v 38.8997 h 82.6822 v -38.8997 z"
       id="text3"
       style="font-size:333.333px;font-family:Aldrich;-inkscape-font-specification:'Aldrich, Normal';fill:#ffffff;stroke-width:22.927"
       aria-label="eggie" />
  </g>
</svg>
